<svg xmlns="http://www.w3.org/2000/svg" width="617.000000pt" height="404.000000pt" viewBox="0 0 617.000000 404.000000" preserveAspectRatio="xMidYMid meet"><g transform="translate(0.000000,404.000000) scale(0.100000,-0.100000)" fill="#4473C5" stroke="none"><path d="M2257 3675 c-90 -101 -244 -314 -246 -340 -1 -5 -8 -23 -17 -40 -30 -56 -83 -262 -89 -346 -4 -46 -8 -86 -10 -89 -2 -4 3 -75 11 -159 15 -162 46 -275 84 -316 11 -12 23 -32 25 -45 2 -12 11 -30 19 -39 8 -9 14 -18 13 -21 -7 -21 279 -311 298 -303 7 2 20 -14 30 -36 9 -22 23 -42 30 -44 22 -9 38 10 31 36 -8 33 -70 123 -117 171 -21 21 -57 73 -80 115 -23 42 -46 82 -52 89 -6 8 -12 23 -14 34 -2 11 -9 29 -15 41 -7 12 -13 24 -13 27 -1 3 -10 23 -20 45 -10 22 -18 43 -17 47 1 3 -6 32 -14 65 -20 73 -20 187 1 278 9 39 17 77 18 85 5 27 48 111 97 189 26 42 62 99 80 126 17 28 44 65 59 84 l28 34 59 -36 c98 -61 184 -47 184 29 0 41 -46 110 -146 221 -46 51 -84 102 -84 113 0 14 -11 22 -37 29 -21 6 -40 11 -43 10 -3 0 -27 -24 -53 -54z"></path><path d="M3798 3628 c-24 -29 -59 -68 -79 -88 -52 -52 -128 -164 -146 -215 -19 -58 -13 -78 24 -69 26 5 143 56 206 89 26 14 28 13 50 -23 98 -156 157 -273 157 -312 0 -14 5 -41 11 -60 5 -19 12 -42 14 -50 2 -8 12 -45 23 -82 42 -148 -14 -346 -196 -684 -39 -72 -81 -138 -124 -192 -37 -45 -37 -47 -19 -65 14 -15 23 -17 38 -9 25 14 120 113 214 222 40 47 91 106 114 132 42 47 183 314 171 325 -3 3 -1 12 5 20 6 7 8 13 4 13 -4 0 -3 6 3 13 6 6 17 39 26 72 25 100 9 358 -31 480 -27 83 -111 243 -189 361 -58 88 -84 117 -124 142 -75 46 -100 43 -152 -20z"></path><path d="M3036 3507 c-23 -23 -66 -61 -96 -84 -31 -24 -73 -68 -94 -102 -22 -34 -48 -62 -61 -65 -26 -7 -177 -161 -261 -267 -71 -90 -147 -232 -171 -320 -31 -119 -17 -367 27 -448 6 -12 9 -21 6 -21 -3 0 6 -30 20 -67 14 -38 27 -77 29 -88 9 -47 34 -98 64 -129 18 -18 33 -40 35 -48 2 -17 87 -120 94 -114 5 6 43 -34 122 -132 42 -53 72 -81 86 -81 29 -1 35 8 22 33 -42 84 -106 180 -129 197 -15 11 -33 36 -40 57 -7 20 -25 66 -41 102 -28 61 -82 295 -72 311 2 4 0 11 -6 14 -7 4 -7 11 -2 18 5 7 10 27 11 45 0 17 1 38 2 45 0 6 -2 21 -4 32 -2 11 -1 25 4 31 5 6 10 33 13 60 2 27 6 56 9 64 3 8 12 35 20 60 35 105 110 216 242 359 72 78 136 141 143 141 7 0 15 7 18 15 4 8 10 15 16 15 5 0 26 14 48 31 l38 31 64 -50 c62 -50 148 -142 148 -159 0 -5 14 -22 30 -38 17 -16 30 -35 30 -42 0 -8 16 -30 35 -50 19 -20 35 -45 35 -55 0 -10 6 -21 13 -24 8 -3 14 -11 14 -18 0 -8 10 -35 22 -60 12 -26 19 -51 16 -55 -3 -5 2 -22 10 -37 8 -16 15 -36 15 -44 0 -9 6 -24 14 -35 7 -11 13 -27 14 -35 8 -149 11 -190 16 -198 3 -6 1 -23 -5 -39 -6 -15 -8 -45 -5 -65 4 -22 2 -40 -5 -43 -9 -6 -28 -46 -33 -70 -1 -5 -7 -19 -13 -30 -6 -11 -22 -58 -37 -105 -32 -100 -43 -125 -73 -165 -12 -16 -22 -34 -23 -40 -3 -31 -15 -63 -33 -88 -10 -16 -17 -31 -14 -33 3 -3 -9 -19 -26 -35 -31 -29 -32 -29 -12 -44 18 -14 21 -14 31 0 6 8 14 12 17 8 4 -3 10 3 14 13 4 10 38 50 76 89 70 71 191 240 182 255 -7 12 6 41 15 35 15 -9 132 211 165 310 38 112 47 295 21 409 -8 33 -28 92 -45 129 -32 70 -127 217 -141 217 -5 0 -40 39 -78 88 -71 90 -299 324 -367 377 -56 43 -108 75 -124 75 -8 0 -33 -19 -55 -43z"></path><path d="M1232 3252 c-13 -4 -23 -11 -23 -17 0 -5 -8 -18 -17 -28 -13 -15 -14 -26 -6 -66 8 -38 7 -53 -4 -69 -8 -13 -11 -29 -7 -39 4 -10 10 -34 12 -53 2 -19 10 -41 17 -50 12 -13 27 -84 28 -130 0 -8 7 -22 15 -31 7 -9 13 -20 12 -25 -1 -5 16 -49 39 -97 23 -49 42 -91 42 -95 0 -23 217 -279 232 -275 4 2 12 -6 18 -17 6 -11 15 -18 21 -15 5 4 9 2 9 -4 0 -13 42 -41 67 -46 10 -1 17 -7 16 -13 -4 -16 27 -37 131 -92 84 -43 106 -51 145 -48 37 2 46 7 46 22 0 13 -21 30 -70 55 -102 52 -259 222 -323 347 -11 22 -41 66 -66 97 -25 30 -46 60 -46 66 0 6 -11 18 -24 26 -23 15 -52 66 -92 160 -12 26 -18 68 -18 124 l-1 83 49 -6 c27 -3 54 -10 60 -16 5 -5 18 -10 27 -10 9 0 22 -6 28 -14 8 -10 34 -14 79 -14 37 -1 76 -2 87 -4 17 -3 20 3 20 36 0 41 -10 51 -85 88 -14 7 -29 18 -33 25 -5 8 -12 11 -17 8 -5 -3 -24 10 -42 28 -41 42 -131 84 -221 103 -74 15 -71 15 -105 6z"></path><path d="M4931 3230 c-59 -20 -107 -52 -104 -69 3 -12 -28 -30 -60 -36 -21 -4 -60 -22 -195 -88 -68 -34 -108 -69 -97 -86 6 -10 22 -10 150 5 22 2 60 6 85 7 25 2 56 9 68 16 33 18 37 8 18 -39 -9 -23 -16 -69 -16 -108 0 -55 -5 -78 -28 -122 -53 -102 -119 -195 -193 -275 -110 -118 -110 -118 -164 -154 -27 -19 -61 -42 -75 -53 -53 -40 -161 -108 -192 -122 -42 -17 -92 -70 -85 -89 4 -12 20 -11 99 4 148 27 224 61 354 157 44 33 105 76 136 96 31 19 94 73 140 119 70 70 91 99 135 187 55 112 81 183 120 325 30 112 46 264 30 284 -6 7 -16 23 -22 35 -14 27 -38 29 -104 6z"></path><path d="M5208 2773 c-8 -10 -27 -43 -40 -74 -14 -31 -42 -74 -62 -96 -20 -22 -36 -43 -36 -46 0 -16 -216 -237 -231 -237 -6 0 -54 -30 -107 -67 -53 -36 -129 -81 -168 -99 -40 -18 -75 -37 -78 -42 -3 -5 4 -16 17 -24 18 -12 58 -14 204 -12 177 3 246 14 343 52 38 15 119 85 142 123 19 32 64 149 74 194 10 49 7 301 -5 323 -14 26 -33 28 -53 5z"></path><path d="M972 2767 c-6 -7 -11 -22 -11 -32 0 -11 -1 -75 -2 -142 -1 -127 1 -140 33 -213 21 -47 114 -171 126 -168 4 1 30 -5 57 -14 100 -32 275 -57 370 -54 33 1 41 5 43 22 4 31 -40 70 -162 142 -58 35 -106 66 -106 71 0 4 -38 49 -85 99 -47 51 -107 127 -134 170 -85 133 -104 150 -129 119z"></path><path d="M5378 2323 c-14 -16 -39 -49 -56 -74 -17 -26 -45 -59 -61 -75 -16 -15 -27 -32 -24 -37 3 -6 2 -7 -4 -4 -5 3 -36 -7 -70 -23 -62 -30 -151 -56 -218 -65 -21 -2 -46 -12 -56 -21 -14 -12 -22 -14 -32 -6 -18 15 -353 12 -393 -4 -16 -7 -70 -16 -120 -20 -149 -12 -293 -53 -445 -128 -75 -36 -139 -66 -142 -66 -14 0 -92 -62 -90 -71 3 -8 -56 -45 -68 -42 -3 1 -20 -11 -38 -28 -18 -16 -35 -29 -38 -29 -24 0 -173 -173 -173 -201 0 -9 7 -22 15 -29 22 -18 66 3 127 60 27 25 66 55 86 65 20 11 54 30 75 42 20 13 37 21 37 19 0 -3 15 0 33 5 46 14 166 39 207 44 19 2 60 7 90 10 30 4 118 9 195 11 77 2 156 9 175 14 19 6 54 10 78 10 73 0 264 31 322 52 30 11 82 29 115 40 33 11 82 29 109 39 27 11 51 17 53 15 10 -10 -94 -169 -154 -235 -18 -20 -33 -39 -33 -42 0 -26 -245 -225 -306 -249 -11 -4 -40 -22 -65 -39 -33 -21 -66 -33 -115 -40 -38 -6 -118 -18 -179 -27 -145 -22 -143 -22 -193 -23 -43 -1 -65 -22 -45 -42 26 -26 341 -43 498 -28 202 20 183 15 310 92 161 98 272 183 356 274 109 120 229 361 276 558 29 122 46 281 32 307 -14 26 -41 22 -71 -9z"></path><path d="M802 2255 c-17 -19 -29 -41 -27 -47 2 -7 6 -56 9 -108 8 -143 38 -269 74 -319 17 -24 36 -59 43 -79 6 -20 17 -41 23 -47 7 -5 18 -25 26 -44 17 -42 127 -180 149 -189 9 -3 46 -33 82 -66 45 -42 98 -77 170 -113 119 -59 160 -76 166 -69 3 2 24 -2 46 -11 49 -17 206 -45 218 -38 4 3 10 1 13 -3 5 -9 87 -15 179 -14 58 0 68 1 136 13 80 13 121 60 53 59 -92 -1 -202 8 -215 18 -7 7 -17 9 -21 5 -13 -14 -44 -12 -56 2 -7 8 -19 15 -26 15 -8 0 -74 23 -146 51 -73 27 -140 51 -148 51 -8 1 -19 7 -25 13 -5 6 -49 42 -97 80 -49 37 -88 72 -88 76 0 4 -34 40 -75 80 -41 40 -75 78 -75 84 0 5 -14 28 -30 49 -17 22 -30 44 -30 49 0 5 -14 27 -31 48 -17 22 -28 46 -25 54 3 8 1 17 -4 20 -12 8 -13 26 -1 43 6 11 27 1 88 -41 127 -87 291 -159 363 -159 14 0 30 -4 35 -8 18 -14 328 -40 520 -44 39 -1 75 -5 80 -8 6 -3 66 -18 135 -33 106 -22 186 -46 365 -106 101 -34 106 -13 20 89 -41 49 -84 89 -113 105 -26 14 -73 48 -104 76 -33 28 -81 58 -115 71 -32 12 -62 25 -68 29 -19 15 -114 51 -142 55 -15 2 -35 6 -43 9 -87 34 -194 43 -424 35 -88 -3 -288 23 -310 41 -6 5 -42 16 -81 25 -96 23 -162 46 -215 76 -25 14 -70 39 -100 55 -30 17 -71 47 -91 68 l-36 38 -31 -36z"></path><path d="M760 1545 c-19 -7 -62 -15 -94 -20 -33 -4 -71 -12 -85 -18 -14 -5 -34 -9 -44 -8 -9 1 -20 -5 -23 -14 -4 -9 -13 -13 -24 -10 -22 7 -60 -49 -60 -89 0 -28 44 -106 59 -106 6 0 38 -25 73 -55 34 -30 68 -55 74 -55 6 0 21 -11 34 -25 29 -31 201 -115 287 -140 43 -12 98 -18 175 -19 163 -1 363 11 386 23 12 6 34 11 51 11 16 0 32 4 35 9 9 14 -65 54 -104 57 -19 1 -46 5 -60 8 -14 4 -44 9 -65 10 -22 2 -48 7 -58 11 -10 4 -23 2 -32 -5 -11 -9 -30 -6 -92 15 -108 38 -203 74 -238 93 -16 9 -32 17 -35 17 -13 3 -177 85 -192 97 -17 12 -16 16 12 58 16 25 30 49 30 54 0 4 11 21 25 38 43 51 25 84 -35 63z"></path><path d="M5360 1545 c-7 -9 -6 -16 5 -25 8 -7 13 -15 10 -19 -2 -4 16 -32 41 -62 24 -30 43 -59 42 -66 -4 -15 -147 -134 -185 -153 -15 -8 -39 -23 -53 -32 -34 -24 -151 -66 -228 -83 -34 -8 -68 -18 -75 -22 -15 -10 -27 -11 -172 -21 -115 -8 -175 -22 -175 -40 0 -22 29 -43 65 -47 22 -2 42 -5 45 -6 3 -1 8 -1 13 0 4 1 34 -8 67 -19 47 -16 86 -20 189 -20 129 0 178 9 296 53 17 7 32 12 35 12 14 1 140 68 140 74 0 4 18 17 39 29 81 46 239 201 246 242 5 26 0 33 -36 57 -97 65 -143 92 -151 87 -5 -3 -16 4 -26 15 -25 30 -118 62 -132 46z"></path><path d="M2805 1300 c-33 -22 -63 -40 -67 -40 -5 0 -38 -14 -75 -31 -38 -17 -81 -37 -98 -44 -39 -17 -303 -86 -318 -83 -7 1 -30 -2 -52 -6 -22 -5 -56 -10 -75 -11 -153 -12 -206 -19 -215 -26 -6 -4 -20 -8 -30 -8 -32 0 -106 -18 -116 -28 -6 -6 -5 -22 3 -44 14 -41 105 -179 118 -179 5 0 32 -20 60 -45 45 -40 109 -87 144 -106 58 -31 115 -54 136 -55 14 0 41 -6 60 -12 21 -7 69 -10 120 -7 47 3 92 5 100 6 88 3 179 42 270 115 152 122 255 285 262 416 3 59 2 63 -20 66 -24 4 -44 -15 -142 -132 -132 -159 -271 -245 -375 -231 -93 12 -195 44 -241 75 -45 32 -49 39 -22 44 7 2 31 6 53 11 69 14 299 111 379 159 41 25 80 46 85 46 14 0 151 138 151 153 0 13 -19 37 -29 36 -4 0 -33 -18 -66 -39z"></path><path d="M3246 1302 c-16 -18 -14 -21 28 -58 73 -64 201 -163 222 -171 10 -4 34 -17 52 -29 18 -13 50 -28 70 -35 20 -6 47 -20 60 -29 12 -10 46 -24 75 -30 28 -7 75 -24 102 -39 49 -25 49 -26 20 -29 -16 -1 -39 -6 -50 -11 -53 -22 -117 -33 -189 -31 -67 1 -88 6 -140 32 -33 17 -71 40 -83 51 -13 11 -23 17 -23 13 0 -4 -9 -2 -21 4 -11 7 -18 14 -15 17 3 4 -15 30 -42 59 -26 30 -65 74 -86 99 -22 25 -45 44 -52 41 -7 -3 -15 3 -19 12 -6 15 -10 13 -30 -12 -13 -16 -21 -34 -19 -40 2 -6 8 -45 14 -86 14 -104 14 -102 35 -134 11 -16 21 -41 23 -54 2 -15 29 -52 62 -87 33 -33 65 -68 72 -77 18 -24 244 -138 273 -138 13 0 36 -5 52 -11 28 -11 142 -1 240 21 68 15 214 89 265 134 25 23 60 51 77 64 17 13 29 28 26 32 -3 5 15 23 40 40 25 17 48 42 51 55 3 13 12 29 20 36 15 12 38 57 49 96 5 19 0 25 -27 37 -27 11 -37 11 -53 1 -46 -29 -216 -34 -319 -10 -88 21 -164 47 -301 103 -219 91 -248 104 -298 135 -27 17 -61 31 -76 32 -14 1 -35 5 -47 9 -14 4 -26 0 -38 -12z"></path></g></svg>